<mxfile host="app.diagrams.net" modified="2024-01-09T07:52:19.102Z" agent="Mozilla/5.0 (Macintosh; Intel Mac OS X 10_15_7) AppleWebKit/537.36 (KHTML, like Gecko) Chrome/120.0.0.0 Safari/537.36 Edg/120.0.0.0" etag="g_PtyKD9pcvRoqBLn4Ay" version="22.1.17" type="github">
  <diagram name="第 1 页" id="pSFM66YJ2xRk52TTQeRo">
    <mxGraphModel dx="1018" dy="655" grid="1" gridSize="10" guides="1" tooltips="1" connect="1" arrows="1" fold="1" page="1" pageScale="1" pageWidth="827" pageHeight="1169" math="0" shadow="0">
      <root>
        <mxCell id="0" />
        <mxCell id="1" parent="0" />
        <mxCell id="IECKvH-rgRgy9NSk1Zk0-2" value="" style="whiteSpace=wrap;html=1;" vertex="1" parent="1">
          <mxGeometry x="230" y="50" width="380" height="40" as="geometry" />
        </mxCell>
        <mxCell id="IECKvH-rgRgy9NSk1Zk0-3" value="" style="rounded=0;whiteSpace=wrap;html=1;" vertex="1" parent="1">
          <mxGeometry x="43" y="150" width="140" height="70" as="geometry" />
        </mxCell>
        <mxCell id="IECKvH-rgRgy9NSk1Zk0-4" value="" style="rounded=0;whiteSpace=wrap;html=1;" vertex="1" parent="1">
          <mxGeometry x="240" y="150" width="140" height="70" as="geometry" />
        </mxCell>
        <mxCell id="IECKvH-rgRgy9NSk1Zk0-5" value="" style="rounded=0;whiteSpace=wrap;html=1;" vertex="1" parent="1">
          <mxGeometry x="437" y="150" width="140" height="70" as="geometry" />
        </mxCell>
        <mxCell id="IECKvH-rgRgy9NSk1Zk0-6" value="" style="rounded=0;whiteSpace=wrap;html=1;" vertex="1" parent="1">
          <mxGeometry x="640" y="150" width="140" height="70" as="geometry" />
        </mxCell>
        <mxCell id="IECKvH-rgRgy9NSk1Zk0-8" value="" style="rounded=0;whiteSpace=wrap;html=1;" vertex="1" parent="1">
          <mxGeometry x="43" y="250" width="30" height="260" as="geometry" />
        </mxCell>
        <mxCell id="IECKvH-rgRgy9NSk1Zk0-9" value="" style="rounded=0;whiteSpace=wrap;html=1;" vertex="1" parent="1">
          <mxGeometry x="98" y="250" width="30" height="260" as="geometry" />
        </mxCell>
        <mxCell id="IECKvH-rgRgy9NSk1Zk0-10" value="" style="rounded=0;whiteSpace=wrap;html=1;" vertex="1" parent="1">
          <mxGeometry x="153" y="250" width="30" height="260" as="geometry" />
        </mxCell>
      </root>
    </mxGraphModel>
  </diagram>
</mxfile>
